D:\PredSimResults\Vitruvian_Man\IG_v25ms_ATx70.mot
version=1
nRows=10
nColumns=31
inDegrees=yes
endheader
                time	         pelvis_tilt	           pelvis_tx	           pelvis_ty	       hip_flexion_r	        knee_angle_r	       ankle_angle_r	       hip_flexion_l	        knee_angle_l	       ankle_angle_l	    lumbar_extension	          arm_flex_r	          arm_flex_l	hamstrings_r/activation	bifemsh_r/activation	glut_max_r/activation	iliopsoas_r/activation	rect_fem_r/activation	  vasti_r/activation	gastroc_r/activation	 soleus_r/activation	tib_ant_r/activation	hamstrings_l/activation	bifemsh_l/activation	glut_max_l/activation	iliopsoas_l/activation	rect_fem_l/activation	  vasti_l/activation	gastroc_l/activation	 soleus_l/activation	tib_ant_l/activation	
          0.83798025	         -7.42775714	          2.07947529	          0.98653015	          4.01644106	        -35.88839778	        -15.56261440	         34.61981787	        -22.60546593	          9.53716097	         -6.98388151	         15.17930729	         15.17930629	          0.05003960	          0.36196415	          0.05001475	          0.98273046	          0.52953013	          0.06551352	          0.18754058	          0.09595231	          0.42112993	          0.68226130	          0.05035084	          0.46127676	          0.05005989	          0.05424196	          0.12934027	          0.05001762	          0.05002332	          0.61481433	
          0.84356678	         -7.40966319	          2.09499734	          0.98487983	          4.32979373	        -37.37750947	        -15.12702062	         34.25427524	        -22.73564226	          9.36089799	         -6.70805679	         14.86802689	         14.86802594	          0.05650643	          0.35012763	          0.05001444	          0.98741010	          0.53728846	          0.05993364	          0.17157131	          0.08777994	          0.43743132	          0.62414840	          0.05459492	          0.51792683	          0.05001667	          0.05001790	          0.18669191	          0.05000744	          0.05000274	          0.68262126	
          0.84915332	         -7.40694553	          2.11052741	          0.98294621	          4.74663862	        -38.93478215	        -14.60577825	         33.94859160	        -23.39177037	          8.88491329	         -6.40201638	         14.55101288	         14.55101197	          0.06025312	          0.35691539	          0.05001474	          0.98640437	          0.64718533	          0.05482922	          0.15696209	          0.08030369	          0.44568458	          0.57098506	          0.05014421	          0.56322468	          0.05001721	          0.05006303	          0.29032420	          0.06529376	          0.06533378	          0.62450973	
          0.85473985	         -7.41878368	          2.12602955	          0.98079189	          5.26712256	        -40.54104468	        -14.11207456	         33.66223295	        -24.39743035	          8.29903661	         -6.07609961	         14.23546116	         14.23546030	          0.08407768	          0.35534629	          0.05001136	          0.93675019	          0.69368192	          0.05016010	          0.14359718	          0.07346435	          0.44796084	          0.52234995	          0.05006853	          0.60828976	          0.05001715	          0.05004556	          0.39074570	          0.05974670	          0.05977267	          0.72639354	
          0.86032639	         -7.43958849	          2.14145651	          0.97850757	          5.88338095	        -42.18022853	        -13.55161806	         33.34236931	        -25.41277388	          8.12242506	         -5.74779946	         13.93091900	         13.93091819	          0.09616026	          0.34685717	          0.05001875	          0.88548392	          0.77642292	          0.05000355	          0.13137047	          0.06720770	          0.44922290	          0.47785744	          0.05013576	          0.63532182	          0.05001233	          0.05001785	          0.40042456	          0.05466335	          0.05468284	          0.80063717	
          0.86591292	         -7.46649597	          2.15671205	          0.97619179	          6.59538443	        -43.83448771	        -12.88165400	         33.02943856	        -26.40445792	          7.81912326	         -5.43688670	         13.65300430	         13.65300355	          0.08801286	          0.35199065	          0.05002584	          0.82939438	          0.83707432	          0.05000474	          0.12018499	          0.06148416	          0.44511152	          0.43715471	          0.05154059	          0.64900131	          0.05001123	          0.05001351	          0.36634081	          0.05001852	          0.05002677	          0.85473443	
          0.87149946	         -7.49334031	          2.17174185	          0.97389984	          7.39329758	        -45.47771241	        -12.13064696	         32.77014427	        -27.44782900	          7.36220092	         -5.16000439	         13.41236986	         13.41236917	          0.08052794	          0.38294341	          0.05001330	          0.77472116	          0.88127791	          0.05000425	          0.10995209	          0.05624850	          0.43863710	          0.39991897	          0.06580169	          0.65724565	          0.05001789	          0.05001355	          0.46124752	          0.05000937	          0.05000284	          0.89415044	
          0.87708599	         -7.51082800	          2.18655680	          0.97166547	          8.25564384	        -47.07900213	        -11.33975940	         32.55779797	        -28.58935385	          7.06748144	         -4.92799052	         13.21077915	         13.21077853	          0.07367911	          0.41936491	          0.05000838	          0.71298045	          0.91348765	          0.05000403	          0.10059068	          0.05146000	          0.43269708	          0.36585491	          0.06023735	          0.67446712	          0.05002360	          0.05002095	          0.60744004	          0.05002398	          0.05001604	          0.86033591	
          0.88267253	         -7.51076949	          2.20118702	          0.96953848	          9.16053506	        -48.60855765	        -10.53874315	         32.35198330	        -29.82071702	          7.26559720	         -4.74774717	         13.04626207	         13.04626151	          0.06741616	          0.45313317	          0.05000990	          0.65246383	          0.93695581	          0.05000429	          0.09202659	          0.05000687	          0.43062295	          0.33469238	          0.05512706	          0.68865450	          0.05001446	          0.05002936	          0.71396476	          0.08189483	          0.10956731	          0.78706167	
          0.88825906	         -7.49349798	          2.21563073	          0.96758598	         10.10195631	        -50.04424662	         -9.77396753	         32.13305822	        -31.12973084	          8.10614815	         -4.62033712	         12.91878755	         12.91878706	          0.06168487	          0.50972334	          0.05000847	          0.59701417	          0.95405135	          0.05000426	          0.08419213	          0.05000752	          0.43139776	          0.30618426	          0.05051531	          0.67898376	          0.05001970	          0.05002881	          0.79158254	          0.07521793	          0.11128813	          0.72002705	
